<svg width="78" height="41" viewBox="0 0 78 41" fill="none" xmlns="http://www.w3.org/2000/svg">
<g clip-path="url(#clip0_27_160)">
<path d="M3.53429 7.06874V24.5901H0.132812V7.06874H3.53429ZM3.53429 0.0601807V3.56446H0.132812V0.0601807H3.53429Z" fill="#3B82F6"/>
<path d="M23.4316 17.5815V21.0858H20.0301V17.5815H23.4316ZM13.2272 3.56445V24.5901H12.2408C11.5378 24.5901 10.9596 24.3565 10.5061 23.8892C10.0525 23.422 9.82576 22.8263 9.82576 22.1021V3.56445H13.2272ZM20.0301 21.0858V24.5901H13.2272V21.0858H20.0301ZM20.0301 7.06873V10.573H6.42432V7.06873H20.0301Z" fill="#3B82F6"/>
<path d="M38.9187 7.06881H42.3204V24.5902H38.9187V7.06881ZM25.313 13.9021C25.313 12.407 25.6871 11.1221 26.4355 10.0474C27.1838 8.97279 28.2042 8.15514 29.4968 7.59445C30.812 7.01039 32.2633 6.71838 33.8506 6.71838C35.4152 6.71838 36.8441 7.01039 38.1364 7.59445C39.429 8.15514 40.4494 8.97279 41.1978 10.0474C41.9461 11.1221 42.3204 12.407 42.3204 13.9021V17.3714C42.3204 18.8665 41.9461 20.1631 41.1978 21.2611C40.4494 22.3357 39.429 23.1651 38.1364 23.7492C36.8441 24.3098 35.4152 24.5902 33.8506 24.5902C32.2633 24.5902 30.812 24.3098 29.4968 23.7492C28.2042 23.1651 27.1838 22.3357 26.4355 21.2611C25.6871 20.1631 25.313 18.8665 25.313 17.3714V13.9021ZM28.7144 16.8808C28.7144 18.446 29.236 19.544 30.2791 20.1748C31.3449 20.7822 32.5354 21.0859 33.8506 21.0859C35.1206 21.0859 36.277 20.7822 37.3203 20.1748C38.3632 19.544 38.8847 18.446 38.8847 16.8808V14.3927C38.8847 12.8275 38.3632 11.7412 37.3203 11.1338C36.2998 10.5263 35.1431 10.2227 33.8506 10.2227C32.5354 10.2227 31.3449 10.5263 30.2791 11.1338C29.236 11.7412 28.7144 12.8275 28.7144 14.3927V16.8808ZM35.5174 13.9021V17.4064H32.1159V13.9021H35.5174Z" fill="#3B82F6"/>
<path d="M60.785 14.7781C60.785 13.2129 60.2635 12.1265 59.2203 11.5192C58.1773 10.8884 57.0206 10.573 55.7508 10.573C54.4357 10.573 53.2449 10.8884 52.1791 11.5192C51.1362 12.1265 50.6147 13.2129 50.6147 14.7781V17.2662L47.213 17.7568V14.2875C47.213 12.7924 47.5874 11.5074 48.3357 10.4328C49.084 9.3348 50.1045 8.50548 51.3971 7.94479C52.7122 7.36074 54.1635 7.06873 55.7508 7.06873C57.3156 7.06873 58.7328 7.36074 60.0026 7.94479C61.2953 8.50548 62.3157 9.3348 63.0641 10.4328C63.8124 11.5074 64.1864 12.7924 64.1864 14.2875V24.5901H60.785V14.7781ZM50.6147 13.7268V24.5901H47.213V13.7268H50.6147ZM77.7924 21.0858V24.5901H74.3907V21.0858H77.7924ZM74.3567 14.7781C74.3567 13.2129 73.8352 12.1265 72.7923 11.5192C71.749 10.8884 70.5926 10.573 69.3228 10.573C68.0073 10.573 66.8169 10.8884 65.7511 11.5192C64.6854 12.1265 64.1523 13.2129 64.1523 14.7781V17.2662L60.785 17.7568V14.2875C60.785 12.7924 61.159 11.5074 61.9073 10.4328C62.6557 9.3348 63.6761 8.50548 64.9688 7.94479C66.2839 7.36074 67.7352 7.06873 69.3228 7.06873C70.8872 7.06873 72.3161 7.36074 73.6084 7.94479C74.901 8.50548 75.9215 9.3348 76.6698 10.4328C77.4181 11.5074 77.7924 12.7924 77.7924 14.2875V21.0858H74.3567V14.7781ZM48.2676 7.06873V10.573H44.8662V7.06873H48.2676Z" fill="#3B82F6"/>
<path d="M1.4415 30.0366V40.808H0.132812V30.0366H1.4415Z" fill="white"/>
<path d="M6.42364 30.0366V40.808H5.11494V30.0366H6.42364ZM9.041 30.0366V31.383H2.49756V30.0366H9.041Z" fill="white"/>
<path d="M23.0241 36.0954V37.4417H17.7109V36.0954H23.0241ZM21.0873 30.0366L17.2921 40.808H15.8525L19.6477 30.0366H21.0873ZM24.8825 40.808H23.4429L19.6477 30.0366H21.0873L24.8825 40.808Z" fill="white"/>
<path d="M27.8938 30.0366V40.808H26.5852V30.0366H27.8938ZM30.5112 30.0366V31.383H23.9678V30.0366H30.5112Z" fill="white"/>
<path d="M38.6319 30.0366V40.808H37.3232V30.0366H38.6319ZM40.0716 30.0366L44.1287 40.808H42.6889L38.6319 30.0366H40.0716ZM40.0716 30.0366V31.383H37.3232V30.0366H40.0716ZM49.6251 40.808H48.3161V30.0366H49.6251V40.808ZM44.2594 40.808H42.8197L46.8767 30.0366H48.3161L44.2594 40.808ZM49.6251 31.383H46.8767V30.0366H49.6251V31.383Z" fill="white"/>
<path d="M52.626 30.0366V40.808H51.3174V30.0366H52.626Z" fill="white"/>
<path d="M54.1929 33.4834C54.1929 32.7294 54.4197 32.0831 54.8734 31.5446C55.3271 31.006 55.916 30.5976 56.6402 30.3194C57.3732 30.0411 58.1538 29.902 58.9829 29.902C59.7854 29.902 60.5228 30.0411 61.1945 30.3194C61.8662 30.5886 62.4244 30.9925 62.8696 31.5311C63.3233 32.0697 63.62 32.7204 63.7593 33.4834H62.2153C61.9884 32.7204 61.5828 32.1819 60.9979 31.8677C60.4223 31.5446 59.7506 31.383 58.9829 31.383C58.1453 31.383 57.395 31.5491 56.7318 31.8812C56.0686 32.2043 55.7372 32.7384 55.7372 33.4834H54.1929ZM55.7372 37.3881C55.9641 38.1419 56.3653 38.6759 56.9413 38.9903C57.5258 39.3043 58.2063 39.4613 58.9829 39.4613C59.8205 39.4613 60.5664 39.2997 61.2207 38.9766C61.8835 38.6535 62.2153 38.1195 62.2153 37.3745H63.7726C63.7726 38.1286 63.5457 38.7748 63.092 39.3134C62.6472 39.852 62.0583 40.2602 61.3253 40.5385C60.5923 40.8079 59.8116 40.9425 58.9829 40.9425C58.1712 40.9425 57.4297 40.8079 56.758 40.5385C56.0863 40.2693 55.5233 39.8698 55.0696 39.3404C54.6248 38.8017 54.3325 38.151 54.1929 37.3881H55.7372ZM62.2153 37.3745C62.2153 37.1411 62.0886 36.9571 61.8355 36.8225C61.5828 36.6789 61.2643 36.5713 60.8804 36.4994C60.4966 36.4276 59.9512 36.3467 59.2445 36.2569C58.1974 36.1315 57.3337 35.992 56.6531 35.8396C55.9814 35.6871 55.4014 35.4268 54.9126 35.0588C54.433 34.6817 54.1929 34.1566 54.1929 33.4834H55.7372C55.7372 33.7796 55.8769 34.013 56.1558 34.1835C56.4351 34.3541 56.7887 34.4798 57.2161 34.5605C57.6436 34.6323 58.2281 34.7041 58.9696 34.7759C59.9904 34.8837 60.8191 35.0093 61.4561 35.1531C62.093 35.2877 62.6383 35.5298 63.092 35.8799C63.5457 36.23 63.7726 36.7283 63.7726 37.3745H62.2153Z" fill="white"/>
<path d="M66.646 30.0366V40.808H65.3374V30.0366H66.646Z" fill="white"/>
<path d="M68.2129 33.4834C68.2129 32.7294 68.4397 32.0831 68.8934 31.5446C69.3471 31.006 69.936 30.5976 70.6602 30.3194C71.3928 30.0411 72.1739 29.902 73.0026 29.902C73.8054 29.902 74.5425 30.0411 75.2145 30.3194C75.8862 30.5886 76.4444 30.9925 76.8896 31.5311C77.343 32.0697 77.6396 32.7204 77.7793 33.4834H76.235C76.0081 32.7204 75.6024 32.1819 75.018 31.8677C74.4423 31.5446 73.7703 31.383 73.0026 31.383C72.165 31.383 71.4146 31.5491 70.7518 31.8812C70.0886 32.2043 69.7572 32.7384 69.7572 33.4834H68.2129ZM69.7572 37.3881C69.9841 38.1419 70.3853 38.6759 70.9613 38.9903C71.5458 39.3043 72.2263 39.4613 73.0026 39.4613C73.8401 39.4613 74.5861 39.2997 75.2404 38.9766C75.9035 38.6535 76.235 38.1195 76.235 37.3745H77.7926C77.7926 38.1286 77.5657 38.7748 77.112 39.3134C76.6669 39.852 76.0779 40.2602 75.3453 40.5385C74.6123 40.8079 73.8316 40.9425 73.0026 40.9425C72.1912 40.9425 71.4497 40.8079 70.778 40.5385C70.106 40.2693 69.5433 39.8698 69.0896 39.3404C68.6448 38.8017 68.3525 38.151 68.2129 37.3881H69.7572ZM76.235 37.3745C76.235 37.1411 76.1086 36.9571 75.8555 36.8225C75.6024 36.6789 75.284 36.5713 74.9001 36.4994C74.5162 36.4276 73.9709 36.3467 73.2645 36.2569C72.2175 36.1315 71.3537 35.992 70.6731 35.8396C70.0014 35.6871 69.4214 35.4268 68.9326 35.0588C68.4527 34.6817 68.2129 34.1566 68.2129 33.4834H69.7572C69.7572 33.7796 69.8969 34.013 70.1758 34.1835C70.4551 34.3541 70.8083 34.4798 71.2358 34.5605C71.6633 34.6323 72.2481 34.7041 72.9896 34.7759C74.0104 34.8837 74.8391 35.0093 75.4761 35.1531C76.113 35.2877 76.6583 35.5298 77.112 35.8799C77.5657 36.23 77.7926 36.7283 77.7926 37.3745H76.235Z" fill="white"/>
</g>
<defs>
<clipPath id="clip0_27_160">
<rect width="78" height="41" fill="white"/>
</clipPath>
</defs>
</svg>
