<svg width="117" height="37" viewBox="0 0 117 37" fill="none" xmlns="http://www.w3.org/2000/svg">
<path d="M4.99716 18.4137L6.04586 18.4196L8.80603 22.3637L10.1847 20.4523L8.01956 14.4519L4.56995 13.2112L4.69442 15.0212H3.81796L2.22021 11.3424H3.75658L7.36957 12.3389L6.37965 9.35901H8.77539L10.6733 13.0342H9.44432H9.13681L9.76949 13.6939H9.87303H13.294L12.4545 10.0861H13.5652L16.186 16.1441H14.0725L10.9157 15.2986L13.3381 19.0262L16.8852 17.0864H18.9875L25.0427 27.6408H19.1819L16.8852 20.4789L14.3785 21.1386L12.1463 22.1742L10.3297 24.7125H7.56089L4.99716 18.4137Z" fill="white"/>
<path d="M90.2991 24.2989C89.1657 24.1265 87.5615 23.8103 87.3261 22.6318C87.1462 21.7551 87.7407 20.8784 88.4048 20.4041C89.4693 19.6424 90.8943 19.5994 92.1529 19.5994C94.2826 19.5994 95.6237 20.4185 96.6888 21.1371L95.1259 22.9049C95.1259 22.9049 94.3103 21.9851 93.2451 21.6832C92.4843 21.4677 91.6822 21.3671 90.6454 21.5539C89.9678 21.6832 89.7047 21.8988 89.7047 22.1863C89.7047 22.4593 89.94 22.6031 90.1612 22.6749C90.7699 22.8474 91.4198 22.8617 92.0284 22.9192C92.8028 23.0055 93.5907 23.063 94.3651 23.1636C94.5314 23.1923 94.6971 23.2067 94.8635 23.2498C95.928 23.4798 97.1453 24.1121 96.9235 25.5349C96.6056 27.5038 93.4663 27.8201 92.1529 27.8201C89.7324 27.8201 88.4603 27.3889 87.105 26.2104L88.7504 24.6295C88.8891 24.7876 89.2759 25.1469 89.4558 25.2762C90.6731 26.1385 91.9311 26.1385 92.9408 26.0523C93.2316 26.0235 94.5314 25.808 94.5314 25.2188C94.5314 24.5433 90.9633 24.4139 90.2991 24.2989Z" fill="white"/>
<path d="M86.4814 27.6476H84.0474V19.7719H86.4814V27.6476Z" fill="white"/>
<path d="M76.7398 24.2989C75.6056 24.1265 74.0014 23.8103 73.7667 22.6318C73.5868 21.7551 74.1813 20.8784 74.8454 20.4041C75.9099 19.6424 77.3342 19.5994 78.5928 19.5994C80.7225 19.5994 82.0643 20.4185 83.1288 21.1371L81.5665 22.9049C81.5665 22.9049 80.7502 21.9851 79.6857 21.6832C78.9249 21.4677 78.1228 21.3671 77.0854 21.5539C76.4077 21.6832 76.1453 21.8988 76.1453 22.1863C76.1453 22.4593 76.38 22.6031 76.6018 22.6749C77.2098 22.8474 77.8597 22.8617 78.4684 22.9192C79.2428 23.0055 80.0313 23.063 80.8057 23.1636C80.9714 23.1923 81.1377 23.2067 81.3034 23.2498C82.3686 23.4798 83.5853 24.1121 83.3641 25.5349C83.0463 27.5038 79.9069 27.8201 78.5928 27.8201C76.173 27.8201 74.9002 27.3889 73.5449 26.2104L75.191 24.6295C75.329 24.7876 75.7165 25.1469 75.8964 25.2762C77.1131 26.1385 78.3717 26.1385 79.3814 26.0523C79.6715 26.0235 80.9714 25.808 80.9714 25.2188C80.9714 24.5433 77.4039 24.4139 76.7398 24.2989Z" fill="white"/>
<path d="M73.1141 21.6114H65.4803V22.7899H72.5196V24.6295H65.4803V25.808H73.1141V27.6476H63.0464V19.7719H73.1141V21.6114Z" fill="white"/>
<path d="M59.6054 19.7719H62.0671V27.6476H59.6608L54.447 22.7469V27.6476H51.9854V19.7719H54.4056L59.6054 24.6727V19.7719Z" fill="white"/>
<path d="M51.1953 21.6114H43.5614V22.7899H50.6007V24.6295H43.5614V25.808H51.1953V27.6476H41.1274V19.7719H51.1953V21.6114Z" fill="white"/>
<path d="M35.0727 23.5228H40.397C40.4247 23.839 40.4108 24.1696 40.397 24.4857C40.0651 27.432 37.8386 27.8201 35.4046 27.8201C32.7632 27.8201 30.3706 27.3745 30.3706 23.7097C30.3706 20.0449 32.7632 19.5994 35.4046 19.5994C37.7971 19.5994 39.996 19.9586 40.3694 22.7899H37.9077C37.6311 21.6545 36.7599 21.439 35.4046 21.439C33.6067 21.439 32.8046 21.7551 32.8046 23.7097C32.8046 25.6643 33.6067 25.9805 35.4046 25.9805C36.4694 25.9805 37.2301 25.8511 37.645 25.2474L35.0727 24.2127V23.5228Z" fill="white"/>
<path d="M115.747 17.2423C115.25 17.2423 114.863 16.8255 114.863 16.3082C114.863 15.7908 115.25 15.374 115.747 15.374C116.246 15.374 116.647 15.7908 116.647 16.3082C116.647 16.8255 116.246 17.2423 115.747 17.2423Z" fill="white"/>
<path d="M111.601 9.35229H114.05V17.2281H111.601V14.21H106.415V17.2281H103.981V9.35229H106.415V12.3704H111.601V9.35229Z" fill="white"/>
<path d="M100.844 14.0663H103.306C102.974 17.0125 100.747 17.4005 98.3132 17.4005C95.6716 17.4005 93.2788 16.955 93.2788 13.2902C93.2788 9.62535 95.6716 9.17981 98.3132 9.17981C100.705 9.17981 102.905 9.53913 103.278 12.3704H100.816C100.54 11.235 99.6678 11.0194 98.3132 11.0194C96.5149 11.0194 95.7128 11.3356 95.7128 13.2902C95.7128 15.2447 96.5149 15.5609 98.3132 15.5609C99.7233 15.5609 100.609 15.331 100.844 14.0663Z" fill="white"/>
<path d="M92.8459 11.1919H85.2118V12.3704H92.2508V14.21H85.2118V15.3885H92.8459V17.2281H82.7778V9.35229H92.8459V11.1919Z" fill="white"/>
<path d="M82.0752 9.35229V11.1919H78.2589V17.2281H75.8107V11.1919H72.0078V9.35229H82.0752Z" fill="white"/>
<path d="M64.9769 13.8794C63.8428 13.7069 62.2386 13.3908 62.0035 12.2123C61.8238 11.3356 62.4184 10.4589 63.0822 9.98466C64.1471 9.22295 65.5715 9.17981 66.83 9.17981C68.9599 9.17981 70.301 9.99905 71.3662 10.7176L69.8032 12.4854C69.8032 12.4854 68.9876 11.5655 67.9224 11.2637C67.1619 11.0482 66.3598 10.9476 65.3226 11.1344C64.6449 11.2637 64.3822 11.4793 64.3822 11.7667C64.3822 12.0398 64.6173 12.1835 64.8386 12.2554C65.4471 12.4279 66.097 12.4422 66.7056 12.4997C67.48 12.586 68.268 12.6434 69.0431 12.744C69.2088 12.7728 69.3744 12.7872 69.5408 12.8302C70.6053 13.0602 71.8227 13.6926 71.6015 15.1154C71.283 17.0843 68.1436 17.4005 66.83 17.4005C64.4099 17.4005 63.1375 16.9694 61.7822 15.7909L63.4279 14.21C63.5662 14.368 63.9535 14.7274 64.1333 14.8567C65.3503 15.719 66.6087 15.719 67.6183 15.6327C67.9089 15.6041 69.2088 15.3885 69.2088 14.7992C69.2088 14.1237 65.6407 13.9944 64.9769 13.8794Z" fill="white"/>
<path d="M62.4446 9.35229L58.2957 13.5632V17.2424H55.8618V13.5632L51.7129 9.35229H54.4788L57.0788 11.9967L59.6649 9.35229H62.4446Z" fill="white"/>
<path d="M48.9633 9.35229H51.4111V17.2281H48.9633V14.21H43.7772V17.2281H41.3433V9.35229H43.7772V12.3704H48.9633V9.35229Z" fill="white"/>
<path d="M38.2815 9.35229C40.1485 9.35229 40.7017 10.4158 40.7017 11.2781V12.2985C40.7017 13.1321 40.1485 14.21 38.2815 14.21H33.0677V17.2281H30.6338V9.35229H38.2815ZM33.0677 12.3704H37.7007C37.7007 12.3704 38.2538 12.3704 38.2538 11.7811C38.2538 11.1919 37.7007 11.1919 37.7007 11.1919H33.0677V12.3704Z" fill="white"/>
</svg>
