<svg width="99" height="36" viewBox="0 0 99 36" fill="none" xmlns="http://www.w3.org/2000/svg">
<g clip-path="url(#clip0_45_913)">
<mask id="mask0_45_913" style="mask-type:luminance" maskUnits="userSpaceOnUse" x="0" y="0" width="162" height="36">
<path d="M162 0.620728H0V35.3793H162V0.620728Z" fill="white"/>
</mask>
<g mask="url(#mask0_45_913)">
<path d="M28.7128 5.25575H5.10532L6.80984 0.620728H30.4172L28.7128 5.25575ZM27.8626 7.57327H4.25512L2.55059 12.2083H26.158L27.8626 7.57327ZM25.312 14.5258H1.70453L0 19.1568H23.6075L25.312 14.5217V14.5258Z" fill="#009FDF"/>
<path d="M84.9578 30.7116H89.184C90.7853 30.7116 91.7593 30.3274 92.4403 29.4609C92.7787 29.0276 93.2657 28.2592 93.2657 26.8164C93.2657 25.3735 92.7787 24.364 91.8089 23.6405C91.2269 23.2073 90.4468 22.9661 89.1386 22.9661H84.9619V30.7116H84.9578ZM79.3736 35.3793V7.57324H97.6405L96.0392 12.241H84.9619V18.4006H89.481C93.1254 18.4006 95.0198 19.267 96.3323 20.3747C97.3516 21.2412 99.1016 23.1663 99.1016 26.9676C99.1016 30.7688 97.3022 32.7879 95.7998 33.8465C94.0499 35.0482 92.205 35.3875 88.4658 35.3875H79.3818L79.3736 35.3793ZM63.195 35.3793V12.241H55.0811V7.57324H77.6197L76.0182 12.241H68.8287V35.3793H63.195ZM40.7061 18.6867H43.8633C44.8332 18.6867 45.3203 18.6867 45.8073 18.5436C47.1198 18.1594 47.9451 17.0026 47.9451 15.4168C47.9451 13.5407 47.0702 12.7232 45.8073 12.3391C45.2749 12.196 44.7384 12.147 43.6694 12.147H40.7061V18.6908V18.6867ZM40.7557 23.4974V30.8096H44.6434C45.8073 30.8096 46.8763 30.7116 47.6563 29.9922C48.4322 29.2687 48.7747 28.3573 48.7747 27.1556C48.7747 26.24 48.5312 25.3776 48.0442 24.7482C47.2187 23.7386 46.1994 23.4974 44.4494 23.4974H40.7557ZM49.7405 20.5628V20.6609C50.8094 21.0451 51.8289 21.7195 52.3654 22.1528C54.0163 23.5015 54.7467 25.2795 54.7467 27.5889C54.7467 31.3901 52.7079 34.1327 49.3566 34.9992C48.3373 35.2894 47.2683 35.3834 45.2749 35.3834H35.1221V7.57324H44.107C45.9518 7.57324 47.2146 7.67134 48.3332 7.95745C51.5895 8.82396 53.7233 11.0352 53.7233 14.5503C53.7233 16.4264 53.0423 18.0123 51.9279 19.0709C51.441 19.5532 50.7599 20.1296 49.7405 20.5628Z" fill="white"/>
</g>
</g>
<defs>
<clipPath id="clip0_45_913">
<rect width="99" height="36" fill="white"/>
</clipPath>
</defs>
</svg>
